<mxfile host="app.diagrams.net" modified="2024-05-21T11:55:52.538Z" agent="Mozilla/5.0 (Macintosh; Intel Mac OS X 10_15_7) AppleWebKit/605.1.15 (KHTML, like Gecko) Version/17.5 Safari/605.1.15" etag="cxDxcvPfL4C4KoQpXih9" version="24.4.4" type="device">
  <diagram name="Page-1" id="929967ad-93f9-6ef4-fab6-5d389245f69c">
    <mxGraphModel dx="1468" dy="858" grid="1" gridSize="10" guides="1" tooltips="1" connect="1" arrows="1" fold="1" page="1" pageScale="1.5" pageWidth="1169" pageHeight="826" background="none" math="0" shadow="0">
      <root>
        <mxCell id="0" style=";html=1;" />
        <mxCell id="1" style=";html=1;" parent="0" />
        <mxCell id="1672d66443f91eb5-1" value="&lt;p style=&quot;margin: 0px ; margin-top: 4px ; margin-left: 10px ; text-align: left&quot;&gt;&lt;b&gt;State&amp;nbsp;&lt;/b&gt;&lt;span style=&quot;text-align: center;&quot;&gt;online ordering&lt;/span&gt;&lt;br&gt;&lt;/p&gt;" style="html=1;strokeWidth=1;shape=mxgraph.sysml.package;html=1;overflow=fill;whiteSpace=wrap;fillColor=none;gradientColor=none;fontSize=12;align=center;labelX=327.64;" parent="1" vertex="1">
          <mxGeometry x="315" y="230" width="1120" height="650" as="geometry" />
        </mxCell>
        <mxCell id="1672d66443f91eb5-23" value="Title" style="text;strokeColor=none;fillColor=none;html=1;fontSize=24;fontStyle=1;verticalAlign=middle;align=center;" parent="1" vertex="1">
          <mxGeometry x="120" y="40" width="1510" height="40" as="geometry" />
        </mxCell>
        <mxCell id="efe_fb2LawiKcRLY6Q70-64" style="edgeStyle=orthogonalEdgeStyle;rounded=0;orthogonalLoop=1;jettySize=auto;html=1;entryX=0.5;entryY=1;entryDx=0;entryDy=0;" edge="1" parent="1" source="efe_fb2LawiKcRLY6Q70-2" target="efe_fb2LawiKcRLY6Q70-59">
          <mxGeometry relative="1" as="geometry" />
        </mxCell>
        <mxCell id="efe_fb2LawiKcRLY6Q70-2" value="" style="ellipse;html=1;shape=startState;fillColor=#000000;strokeColor=#ff0000;" vertex="1" parent="1">
          <mxGeometry x="370" y="650" width="40" height="40" as="geometry" />
        </mxCell>
        <mxCell id="efe_fb2LawiKcRLY6Q70-6" value="" style="ellipse;html=1;shape=endState;fillColor=#000000;strokeColor=#ff0000;" vertex="1" parent="1">
          <mxGeometry x="1260" y="750" width="30" height="30" as="geometry" />
        </mxCell>
        <mxCell id="efe_fb2LawiKcRLY6Q70-20" style="edgeStyle=orthogonalEdgeStyle;rounded=0;orthogonalLoop=1;jettySize=auto;html=1;entryX=0;entryY=0.5;entryDx=0;entryDy=0;curved=1;" edge="1" parent="1" source="efe_fb2LawiKcRLY6Q70-7" target="efe_fb2LawiKcRLY6Q70-15">
          <mxGeometry relative="1" as="geometry" />
        </mxCell>
        <mxCell id="efe_fb2LawiKcRLY6Q70-7" value="Заказ создан" style="rounded=1;whiteSpace=wrap;html=1;" vertex="1" parent="1">
          <mxGeometry x="550" y="390" width="90" height="40" as="geometry" />
        </mxCell>
        <mxCell id="efe_fb2LawiKcRLY6Q70-14" style="edgeStyle=orthogonalEdgeStyle;rounded=0;orthogonalLoop=1;jettySize=auto;html=1;exitX=1;exitY=0.5;exitDx=0;exitDy=0;entryX=0;entryY=0.5;entryDx=0;entryDy=0;curved=1;" edge="1" parent="1" source="efe_fb2LawiKcRLY6Q70-10" target="efe_fb2LawiKcRLY6Q70-13">
          <mxGeometry relative="1" as="geometry" />
        </mxCell>
        <mxCell id="efe_fb2LawiKcRLY6Q70-10" value="Заказ не оплачен" style="rounded=1;whiteSpace=wrap;html=1;" vertex="1" parent="1">
          <mxGeometry x="530" y="530" width="100" height="40" as="geometry" />
        </mxCell>
        <mxCell id="efe_fb2LawiKcRLY6Q70-12" value="Оплата безналичными" style="text;html=1;align=center;verticalAlign=middle;whiteSpace=wrap;rounded=0;" vertex="1" parent="1">
          <mxGeometry x="470" y="500" width="60" height="30" as="geometry" />
        </mxCell>
        <mxCell id="efe_fb2LawiKcRLY6Q70-62" style="edgeStyle=orthogonalEdgeStyle;rounded=0;orthogonalLoop=1;jettySize=auto;html=1;entryX=0.5;entryY=1;entryDx=0;entryDy=0;curved=1;" edge="1" parent="1" source="efe_fb2LawiKcRLY6Q70-13" target="efe_fb2LawiKcRLY6Q70-7">
          <mxGeometry relative="1" as="geometry">
            <Array as="points">
              <mxPoint x="710" y="460" />
              <mxPoint x="595" y="460" />
            </Array>
          </mxGeometry>
        </mxCell>
        <mxCell id="efe_fb2LawiKcRLY6Q70-66" style="edgeStyle=orthogonalEdgeStyle;rounded=0;orthogonalLoop=1;jettySize=auto;html=1;entryX=0.5;entryY=0;entryDx=0;entryDy=0;" edge="1" parent="1" source="efe_fb2LawiKcRLY6Q70-13" target="efe_fb2LawiKcRLY6Q70-65">
          <mxGeometry relative="1" as="geometry" />
        </mxCell>
        <mxCell id="efe_fb2LawiKcRLY6Q70-13" value="Оплата заказа" style="rounded=1;whiteSpace=wrap;html=1;" vertex="1" parent="1">
          <mxGeometry x="670" y="530" width="100" height="40" as="geometry" />
        </mxCell>
        <mxCell id="efe_fb2LawiKcRLY6Q70-25" style="edgeStyle=orthogonalEdgeStyle;rounded=0;orthogonalLoop=1;jettySize=auto;html=1;entryX=0;entryY=0.5;entryDx=0;entryDy=0;" edge="1" parent="1" source="efe_fb2LawiKcRLY6Q70-15" target="efe_fb2LawiKcRLY6Q70-24">
          <mxGeometry relative="1" as="geometry" />
        </mxCell>
        <mxCell id="efe_fb2LawiKcRLY6Q70-15" value="&amp;nbsp;Заказ передан курьерской службе и ресторану" style="rounded=1;whiteSpace=wrap;html=1;" vertex="1" parent="1">
          <mxGeometry x="710" y="340" width="120" height="60" as="geometry" />
        </mxCell>
        <mxCell id="efe_fb2LawiKcRLY6Q70-18" value="Оплата не прошла" style="text;html=1;align=center;verticalAlign=middle;whiteSpace=wrap;rounded=0;" vertex="1" parent="1">
          <mxGeometry x="630" y="590" width="80" height="30" as="geometry" />
        </mxCell>
        <mxCell id="efe_fb2LawiKcRLY6Q70-22" value="Заказ успешно оплачен" style="text;html=1;align=center;verticalAlign=middle;whiteSpace=wrap;rounded=0;" vertex="1" parent="1">
          <mxGeometry x="660" y="440" width="100" height="30" as="geometry" />
        </mxCell>
        <mxCell id="efe_fb2LawiKcRLY6Q70-23" value="Выбрана оплата наличными" style="text;html=1;align=center;verticalAlign=middle;whiteSpace=wrap;rounded=0;" vertex="1" parent="1">
          <mxGeometry x="390" y="380" width="120" height="30" as="geometry" />
        </mxCell>
        <mxCell id="efe_fb2LawiKcRLY6Q70-32" style="edgeStyle=orthogonalEdgeStyle;rounded=0;orthogonalLoop=1;jettySize=auto;html=1;entryX=0.5;entryY=0;entryDx=0;entryDy=0;curved=1;" edge="1" parent="1" source="efe_fb2LawiKcRLY6Q70-24" target="efe_fb2LawiKcRLY6Q70-31">
          <mxGeometry relative="1" as="geometry" />
        </mxCell>
        <mxCell id="efe_fb2LawiKcRLY6Q70-24" value="Заказ готовится" style="rounded=1;whiteSpace=wrap;html=1;" vertex="1" parent="1">
          <mxGeometry x="920" y="340" width="120" height="60" as="geometry" />
        </mxCell>
        <mxCell id="efe_fb2LawiKcRLY6Q70-35" style="edgeStyle=orthogonalEdgeStyle;rounded=0;orthogonalLoop=1;jettySize=auto;html=1;curved=1;" edge="1" parent="1" source="efe_fb2LawiKcRLY6Q70-28" target="efe_fb2LawiKcRLY6Q70-30">
          <mxGeometry relative="1" as="geometry" />
        </mxCell>
        <mxCell id="efe_fb2LawiKcRLY6Q70-40" style="edgeStyle=orthogonalEdgeStyle;rounded=0;orthogonalLoop=1;jettySize=auto;html=1;exitX=1;exitY=0.5;exitDx=0;exitDy=0;entryX=0;entryY=0.5;entryDx=0;entryDy=0;curved=1;" edge="1" parent="1" source="efe_fb2LawiKcRLY6Q70-28" target="efe_fb2LawiKcRLY6Q70-38">
          <mxGeometry relative="1" as="geometry" />
        </mxCell>
        <mxCell id="efe_fb2LawiKcRLY6Q70-28" value="Заказ передан курьеру" style="rounded=1;whiteSpace=wrap;html=1;" vertex="1" parent="1">
          <mxGeometry x="990" y="540" width="120" height="60" as="geometry" />
        </mxCell>
        <mxCell id="efe_fb2LawiKcRLY6Q70-43" style="edgeStyle=orthogonalEdgeStyle;rounded=0;orthogonalLoop=1;jettySize=auto;html=1;exitX=1;exitY=0.5;exitDx=0;exitDy=0;entryX=0.5;entryY=0;entryDx=0;entryDy=0;curved=1;" edge="1" parent="1" source="efe_fb2LawiKcRLY6Q70-30" target="efe_fb2LawiKcRLY6Q70-42">
          <mxGeometry relative="1" as="geometry" />
        </mxCell>
        <mxCell id="efe_fb2LawiKcRLY6Q70-30" value="Заказ доставлен" style="rounded=1;whiteSpace=wrap;html=1;" vertex="1" parent="1">
          <mxGeometry x="840" y="630" width="120" height="60" as="geometry" />
        </mxCell>
        <mxCell id="efe_fb2LawiKcRLY6Q70-34" style="edgeStyle=orthogonalEdgeStyle;rounded=0;orthogonalLoop=1;jettySize=auto;html=1;entryX=0.5;entryY=0;entryDx=0;entryDy=0;curved=1;" edge="1" parent="1" source="efe_fb2LawiKcRLY6Q70-31" target="efe_fb2LawiKcRLY6Q70-28">
          <mxGeometry relative="1" as="geometry" />
        </mxCell>
        <mxCell id="efe_fb2LawiKcRLY6Q70-31" value="Ожидание курьера" style="rounded=1;whiteSpace=wrap;html=1;" vertex="1" parent="1">
          <mxGeometry x="840" y="440" width="120" height="60" as="geometry" />
        </mxCell>
        <mxCell id="efe_fb2LawiKcRLY6Q70-36" value="Курьер успешно доставил заказ" style="text;html=1;align=center;verticalAlign=middle;whiteSpace=wrap;rounded=0;" vertex="1" parent="1">
          <mxGeometry x="800" y="560" width="120" height="30" as="geometry" />
        </mxCell>
        <mxCell id="efe_fb2LawiKcRLY6Q70-38" value="Не доставлен" style="rounded=1;whiteSpace=wrap;html=1;" vertex="1" parent="1">
          <mxGeometry x="1170" y="500" width="120" height="60" as="geometry" />
        </mxCell>
        <mxCell id="efe_fb2LawiKcRLY6Q70-41" value="Курьер не смог доставить заказ" style="text;html=1;align=center;verticalAlign=middle;whiteSpace=wrap;rounded=0;" vertex="1" parent="1">
          <mxGeometry x="1100" y="490" width="60" height="30" as="geometry" />
        </mxCell>
        <mxCell id="efe_fb2LawiKcRLY6Q70-47" style="edgeStyle=orthogonalEdgeStyle;rounded=0;orthogonalLoop=1;jettySize=auto;html=1;curved=1;" edge="1" parent="1" source="efe_fb2LawiKcRLY6Q70-42" target="efe_fb2LawiKcRLY6Q70-6">
          <mxGeometry relative="1" as="geometry" />
        </mxCell>
        <mxCell id="efe_fb2LawiKcRLY6Q70-42" value="Оценка качества обслуживания" style="rounded=1;whiteSpace=wrap;html=1;" vertex="1" parent="1">
          <mxGeometry x="990" y="690" width="120" height="60" as="geometry" />
        </mxCell>
        <mxCell id="efe_fb2LawiKcRLY6Q70-46" style="edgeStyle=orthogonalEdgeStyle;rounded=0;orthogonalLoop=1;jettySize=auto;html=1;curved=1;" edge="1" parent="1" source="efe_fb2LawiKcRLY6Q70-44" target="efe_fb2LawiKcRLY6Q70-6">
          <mxGeometry relative="1" as="geometry" />
        </mxCell>
        <mxCell id="efe_fb2LawiKcRLY6Q70-50" style="edgeStyle=orthogonalEdgeStyle;rounded=0;orthogonalLoop=1;jettySize=auto;html=1;exitX=1;exitY=0.5;exitDx=0;exitDy=0;" edge="1" parent="1" source="efe_fb2LawiKcRLY6Q70-44" target="efe_fb2LawiKcRLY6Q70-15">
          <mxGeometry relative="1" as="geometry">
            <Array as="points">
              <mxPoint x="1350" y="640" />
              <mxPoint x="1350" y="300" />
              <mxPoint x="770" y="300" />
            </Array>
          </mxGeometry>
        </mxCell>
        <mxCell id="efe_fb2LawiKcRLY6Q70-44" value="Заказ на рассмотрении у службы поддержки" style="rounded=1;whiteSpace=wrap;html=1;" vertex="1" parent="1">
          <mxGeometry x="1210" y="610" width="120" height="60" as="geometry" />
        </mxCell>
        <mxCell id="efe_fb2LawiKcRLY6Q70-45" style="edgeStyle=orthogonalEdgeStyle;rounded=0;orthogonalLoop=1;jettySize=auto;html=1;entryX=0.442;entryY=0.02;entryDx=0;entryDy=0;entryPerimeter=0;curved=1;" edge="1" parent="1" source="efe_fb2LawiKcRLY6Q70-38" target="efe_fb2LawiKcRLY6Q70-44">
          <mxGeometry relative="1" as="geometry" />
        </mxCell>
        <mxCell id="efe_fb2LawiKcRLY6Q70-48" value="Клиент не стал ещё раз заказывать товар и ему вернулись деньги" style="text;html=1;align=center;verticalAlign=middle;whiteSpace=wrap;rounded=0;" vertex="1" parent="1">
          <mxGeometry x="1260" y="690" width="180" height="30" as="geometry" />
        </mxCell>
        <mxCell id="efe_fb2LawiKcRLY6Q70-51" value="Клиенту готовится заново заказ" style="text;html=1;align=center;verticalAlign=middle;whiteSpace=wrap;rounded=0;" vertex="1" parent="1">
          <mxGeometry x="940" y="270" width="240" height="30" as="geometry" />
        </mxCell>
        <mxCell id="efe_fb2LawiKcRLY6Q70-55" value="Заказ приготовлен" style="text;html=1;align=center;verticalAlign=middle;whiteSpace=wrap;rounded=0;" vertex="1" parent="1">
          <mxGeometry x="970" y="410" width="60" height="30" as="geometry" />
        </mxCell>
        <mxCell id="efe_fb2LawiKcRLY6Q70-60" style="edgeStyle=orthogonalEdgeStyle;rounded=0;orthogonalLoop=1;jettySize=auto;html=1;entryX=0;entryY=0.5;entryDx=0;entryDy=0;exitX=0.5;exitY=0;exitDx=0;exitDy=0;curved=1;" edge="1" parent="1" source="efe_fb2LawiKcRLY6Q70-59" target="efe_fb2LawiKcRLY6Q70-7">
          <mxGeometry relative="1" as="geometry" />
        </mxCell>
        <mxCell id="efe_fb2LawiKcRLY6Q70-61" style="edgeStyle=orthogonalEdgeStyle;rounded=0;orthogonalLoop=1;jettySize=auto;html=1;exitX=1;exitY=0.5;exitDx=0;exitDy=0;entryX=0;entryY=0.5;entryDx=0;entryDy=0;curved=1;" edge="1" parent="1" source="efe_fb2LawiKcRLY6Q70-59" target="efe_fb2LawiKcRLY6Q70-10">
          <mxGeometry relative="1" as="geometry" />
        </mxCell>
        <mxCell id="efe_fb2LawiKcRLY6Q70-59" value="Оформление заказа&lt;div&gt;(Указать сведения о клиенте, указать что будет в заказе, указать способ оплаты )&lt;/div&gt;" style="rounded=1;whiteSpace=wrap;html=1;" vertex="1" parent="1">
          <mxGeometry x="330" y="480" width="120" height="110" as="geometry" />
        </mxCell>
        <mxCell id="efe_fb2LawiKcRLY6Q70-65" value="" style="ellipse;html=1;shape=endState;fillColor=#000000;strokeColor=#ff0000;" vertex="1" parent="1">
          <mxGeometry x="705" y="645" width="30" height="30" as="geometry" />
        </mxCell>
      </root>
    </mxGraphModel>
  </diagram>
</mxfile>
